HIERARCHY
ROOT Hips
{
 OFFSET 0.000000 0.000000 0.000000
 CHANNELS 6 Xposition Yposition Zposition Yrotation Xrotation Zrotation
 JOINT Chest
 {
  OFFSET 0.000000 9.585900 0.002600
  CHANNELS 3 Yrotation Xrotation Zrotation
  JOINT Chest2
  {
   OFFSET 0.000000 9.601200 -0.005300
   CHANNELS 3 Yrotation Xrotation Zrotation
   JOINT Chest3
   {
    OFFSET 0.000000 9.561800 0.000000
    CHANNELS 3 Yrotation Xrotation Zrotation
    JOINT Chest4
    {
     OFFSET 0.000000 9.552100 0.000000
     CHANNELS 3 Yrotation Xrotation Zrotation
     JOINT Neck
     {
      OFFSET 0.000000 14.453000 0.000000
      CHANNELS 3 Yrotation Xrotation Zrotation
      JOINT Head
      {
       OFFSET 0.000000 8.936500 -0.011300
       CHANNELS 3 Yrotation Xrotation Zrotation
       End Site
       {
        OFFSET 0.000000 17.073600 -0.006000
       }
      }
     }
     JOINT RightCollar
     {
      OFFSET -2.921100 9.558500 0.000000
      CHANNELS 3 Yrotation Xrotation Zrotation
      JOINT RightShoulder
      {
       OFFSET -13.519700 0.000000 0.000000
       CHANNELS 3 Yrotation Xrotation Zrotation
       JOINT RightElbow
       {
        OFFSET 0.000000 -29.696600 0.000000
        CHANNELS 3 Yrotation Xrotation Zrotation
        JOINT RightWrist
        {
         OFFSET 0.000000 -24.004700 0.000000
         CHANNELS 3 Yrotation Xrotation Zrotation
         End Site
         {
          OFFSET 0.000000 -17.728500 0.000000
         }
        }
       }
      }
     }
     JOINT LeftCollar
     {
      OFFSET 2.921100 9.558500 0.000000
      CHANNELS 3 Yrotation Xrotation Zrotation
      JOINT LeftShoulder
      {
       OFFSET 13.519700 0.000000 0.000000
       CHANNELS 3 Yrotation Xrotation Zrotation
       JOINT LeftElbow
       {
        OFFSET 0.000000 -29.696600 0.000000
        CHANNELS 3 Yrotation Xrotation Zrotation
        JOINT LeftWrist
        {
         OFFSET 0.000000 -24.004700 0.000000
         CHANNELS 3 Yrotation Xrotation Zrotation
         End Site
         {
          OFFSET 0.000000 -17.728500 0.000000
         }
        }
       }
      }
     }
    }
   }
  }
 }
 JOINT RightHip
 {
  OFFSET -7.771700 -0.012900 -0.001300
  CHANNELS 3 Yrotation Xrotation Zrotation
  JOINT RightKnee
  {
   OFFSET 0.000000 -40.869800 0.001200
   CHANNELS 3 Yrotation Xrotation Zrotation
   JOINT RightAnkle
   {
    OFFSET 0.000000 -39.717900 0.002100
    CHANNELS 3 Yrotation Xrotation Zrotation
    JOINT RightToe
    {
     OFFSET 0.000000 -4.965400 11.033500
     CHANNELS 3 Yrotation Xrotation Zrotation
     End Site
     {
      OFFSET 0.000000 -1.423100 5.872300
     }
    }
   }
  }
 }
 JOINT LeftHip
 {
  OFFSET 7.771700 -0.012900 -0.001300
  CHANNELS 3 Yrotation Xrotation Zrotation
  JOINT LeftKnee
  {
   OFFSET 0.000000 -40.869800 0.001200
   CHANNELS 3 Yrotation Xrotation Zrotation
   JOINT LeftAnkle
   {
    OFFSET 0.000000 -39.717900 0.002100
    CHANNELS 3 Yrotation Xrotation Zrotation
    JOINT LeftToe
    {
     OFFSET 0.000000 -4.965400 11.033500
     CHANNELS 3 Yrotation Xrotation Zrotation
     End Site
     {
      OFFSET 0.000000 -1.423100 5.872300
     }
    }
   }
  }
 }
}
MOTION
Frames: 6
Frame Time: 0.008333
14.310141 49.932125 52.307085 173.115806 -31.599017 -6.481214 6.451903 18.414180 6.863310 0.790246 2.377127 0.651879 1.160719 3.865758 1.072012 5.584563 15.966626 5.124090 -2.489906 16.164786 0.834888 -5.024618 -5.732078 2.469140 -2.610497 -3.916483 -5.773863 0.633816 -3.658426 -2.466368 159.609588 -68.336922 -165.339876 3.912810 -3.427799 26.395280 -11.058598 -3.060384 0.376131 8.896856 -6.022681 4.024110 -140.525984 -71.346725 147.177440 14.975041 2.687295 -40.763885 -0.023639 -49.441361 10.854452 -121.545187 86.799988 -110.388674 -4.359241 -11.729275 -3.253216 -0.109132 0.679406 -0.038621 -8.849912 -52.732216 16.736048 -151.884755 80.506233 -159.847428 0.080663 -16.385380 8.037104 -0.242708 -0.786498 -0.089823
14.307460 49.934448 52.303261 173.137527 -31.600749 -6.497565 6.555194 18.424305 6.917069 0.713088 2.364283 0.645338 1.223233 3.888796 1.080885 5.629577 15.973353 5.138235 -2.503409 16.219330 0.919205 -5.023612 -5.612929 2.608820 -2.719732 -3.861797 -5.717794 0.730718 -3.698670 -2.313538 160.217597 -68.489397 -165.969390 3.479000 -3.805632 25.450684 -11.143658 -3.038350 0.403742 8.799699 -6.120782 3.872335 -140.641551 -71.642802 147.396296 15.174497 2.685425 -40.173987 -0.011492 -49.435428 10.843883 -121.530351 86.788217 -110.363277 -4.351348 -11.756929 -3.243791 -0.104088 0.690947 -0.038630 -8.851815 -52.735945 16.722254 -151.912501 80.500757 -159.864850 0.091299 -16.395209 8.033829 -0.243748 -0.783249 -0.089934
14.303573 49.937843 52.298667 173.159651 -31.603158 -6.496091 6.606067 18.445457 6.936645 0.677862 2.349685 0.640103 1.277908 3.921281 1.090720 5.671459 15.985143 5.149614 -2.508510 16.261462 0.988239 -5.006977 -5.513111 2.720247 -2.833820 -3.813012 -5.669665 0.853543 -3.747625 -2.178212 160.420836 -68.623961 -166.201449 3.010298 -4.304249 24.130121 -11.215787 -3.021258 0.431604 8.677581 -6.201914 3.753222 -140.387537 -71.843691 147.309204 15.375312 2.614576 -39.489679 -0.005373 -49.430306 10.820465 -121.724892 86.785020 -110.558748 -4.358839 -11.774047 -3.237421 -0.101821 0.691902 -0.038148 -8.844684 -52.736403 16.691626 -151.921549 80.498034 -159.874781 0.092185 -16.400320 8.036412 -0.247456 -0.784807 -0.093761
14.300570 49.941863 52.295023 173.171416 -31.599565 -6.485510 6.641326 18.466086 6.942549 0.691307 2.349061 0.642627 1.250612 3.914624 1.087593 5.729677 16.022320 5.162260 -2.482476 16.305106 1.039144 -4.974734 -5.430702 2.803466 -2.920587 -3.754952 -5.630102 0.995327 -3.802150 -2.061776 160.142595 -68.725355 -165.965641 2.504333 -4.931065 22.389282 -11.249973 -2.994430 0.458636 8.594340 -6.283630 3.698601 -140.027167 -72.009296 147.100812 15.558199 2.474880 -38.694001 0.014063 -49.431244 10.795971 -121.755044 86.778401 -110.579510 -4.409928 -11.794312 -3.239270 -0.048863 0.697645 -0.029985 -8.797687 -52.745346 16.634505 -152.007677 80.501083 -159.941460 0.076652 -16.415614 8.026652 -0.255748 -0.779327 -0.088213
14.299618 49.947769 52.290364 173.191058 -31.605440 -6.481907 6.644917 18.487584 6.940148 0.721660 2.368043 0.647759 1.229323 3.902420 1.085023 5.778521 16.065484 5.176250 -2.452232 16.343066 1.076416 -4.930117 -5.359861 2.860134 -2.999159 -3.694296 -5.597179 1.156707 -3.859876 -1.960123 159.361020 -68.783621 -165.253298 1.967569 -5.669964 20.231809 -11.273569 -2.963508 0.486963 8.511489 -6.372299 3.644779 -139.521471 -72.136733 146.738967 15.707472 2.270193 -37.775720 0.031264 -49.418752 10.771335 -121.885812 86.780672 -110.699746 -4.448473 -11.820486 -3.237638 -0.109011 0.700298 -0.030095 -8.741695 -52.745965 16.568188 -152.048965 80.501802 -159.948442 0.058810 -16.424927 8.013714 -0.246954 -0.777943 -0.082575
14.301559 49.953676 52.287618 173.205901 -31.605120 -6.487071 6.653540 18.502478 6.948240 0.745749 2.391250 0.653180 1.236969 3.913700 1.087440 5.796941 16.084533 5.187644 -2.419967 16.377734 1.101677 -4.877620 -5.295851 2.893913 -3.071164 -3.627161 -5.572723 1.348520 -3.920201 -1.865265 158.174818 -68.790631 -164.166239 1.440765 -6.469185 17.715583 -11.290690 -2.927133 0.512963 8.319850 -6.413040 3.596868 -138.986842 -72.217968 146.445586 15.821290 2.020572 -36.752732 0.035139 -49.409569 10.763675 -121.826365 86.779174 -110.632299 -4.452746 -11.841306 -3.238967 -0.108903 0.706458 -0.032374 -8.735562 -52.744990 16.552788 -152.104375 80.505934 -159.993480 0.044375 -16.438124 8.002018 -0.239899 -0.774148 -0.080753
